<?xml version="1.0" encoding="iso-8859-1"?>
<!-- Generator: Adobe Illustrator 19.0.0, SVG Export Plug-In . SVG Version: 6.00 Build 0)  -->
<svg version="1.1" id="Capa_1" xmlns="http://www.w3.org/2000/svg" xmlns:xlink="http://www.w3.org/1999/xlink" x="0px" y="0px"
	 viewBox="0 0 512.005 512.005" style="enable-background:new 0 0 512.005 512.005;" xml:space="preserve">
<g>
	<g transform="translate(1 1)">
		<circle style="fill:#B0D3F0;" cx="255.003" cy="255.003" r="247.467"/>
		<path style="fill:#D84315;" d="M502.469,255.003C502.48,320.638,476.411,383.589,430,430
			c-46.411,46.411-109.362,72.48-174.997,72.469c-4.267,0-8.533-0.085-12.715-0.341h-0.171
			C110.631,495.277,7.534,386.667,7.534,255.003S110.631,14.729,242.117,7.877h0.171c4.181-0.256,8.448-0.341,12.715-0.341
			C320.638,7.525,383.589,33.594,430,80.005S502.48,189.367,502.469,255.003z"/>
		<path style="fill:#FF5722;" d="M476.869,255.003c0.003,131.665-103.095,240.275-234.581,247.125h-0.171
			C110.631,495.277,7.534,386.667,7.534,255.003S110.631,14.729,242.117,7.877h0.171
			C373.774,14.728,476.872,123.338,476.869,255.003z"/>
		<path style="fill:#607D8B;" d="M502.469,425.669v8.533c0.009,6.792-2.685,13.309-7.488,18.112
			c-4.803,4.803-11.32,7.497-18.112,7.488H33.136c-6.792,0.009-13.309-2.685-18.112-7.488c-4.803-4.803-7.497-11.32-7.488-18.112
			v-8.533l31.573-49.664l28.16-44.203h375.467l28.16,44.203L502.469,425.669z"/>
		<path style="fill:#CFD8DC;" d="M476.869,425.669v8.533c0.009,6.792-2.685,13.309-7.488,18.112
			c-4.803,4.803-11.32,7.497-18.112,7.488H33.136c-6.792,0.009-13.309-2.685-18.112-7.488c-4.803-4.803-7.497-11.32-7.488-18.112
			v-8.533l31.573-49.664l28.16-44.203h349.867l28.16,44.203L476.869,425.669z"/>
		<g>
			<g>
				<path id="SVGCleanerId_0" style="fill:#B0D3F0;" d="M502.469,425.669v8.533c0.009,6.792-2.685,13.309-7.488,18.112
					c-4.803,4.803-11.32,7.497-18.112,7.488H33.136c-6.792,0.009-13.309-2.685-18.112-7.488s-7.497-11.32-7.488-18.112l0-8.533
					H502.469z"/>
			</g>
			<path style="fill:#B0D3F0;" d="M314.736,425.669H195.269l12.8-31.915c2.569-6.475,8.821-10.733,15.787-10.752h62.293
				c6.966,0.019,13.218,4.277,15.787,10.752L314.736,425.669z"/>
		</g>
		<path style="fill:#00838F;" d="M442.736,58.736v273.067H67.269V58.736c0.028-9.414,7.652-17.039,17.067-17.067h341.333
			C435.083,41.697,442.708,49.322,442.736,58.736z"/>
		<path style="fill:#00BCD4;" d="M417.136,58.736v273.067H67.269V58.736c-0.283-9.09,6.816-16.708,15.903-17.067h318.061
			C410.32,42.028,417.419,49.646,417.136,58.736z"/>
		<g>
			<path id="SVGCleanerId_0_1_" style="fill:#7F8C8D;" d="M502.469,425.669v8.533c0.009,6.792-2.685,13.309-7.488,18.112
				c-4.803,4.803-11.32,7.497-18.112,7.488H33.136c-6.792,0.009-13.309-2.685-18.112-7.488s-7.497-11.32-7.488-18.112l0-8.533
				H502.469z"/>
		</g>
		<g>
			<path id="SVGCleanerId_0_2_" style="fill:#607D8B;" d="M502.469,425.669v8.533c0.009,6.792-2.685,13.309-7.488,18.112
				c-4.803,4.803-11.32,7.497-18.112,7.488H33.136c-6.792,0.009-13.309-2.685-18.112-7.488s-7.497-11.32-7.488-18.112l0-8.533
				H502.469z"/>
		</g>
		<g>
			<path style="fill:#CFD8DC;" d="M476.869,425.669v8.533c0.009,6.792-2.685,13.309-7.488,18.112
				c-4.803,4.803-11.32,7.497-18.112,7.488H33.136c-6.792,0.009-13.309-2.685-18.112-7.488s-7.497-11.32-7.488-18.112l0-8.533
				H476.869z"/>
			<path style="fill:#CFD8DC;" d="M314.736,425.669H195.269l12.8-31.915c2.569-6.475,8.821-10.733,15.787-10.752h62.293
				c6.966,0.019,13.218,4.277,15.787,10.752L314.736,425.669z"/>
		</g>
		<path style="fill:#E91E63;" d="M383.6,270.704L269.423,83.995c-3.029-5.08-8.507-8.192-14.421-8.192
			c-5.914,0-11.392,3.112-14.421,8.192L126.405,270.704c-3.357,5.353-3.589,12.094-0.609,17.665c2.98,5.572,8.716,9.12,15.031,9.3
			h228.352c6.316-0.18,12.052-3.728,15.031-9.3C387.19,282.798,386.957,276.057,383.6,270.704z M255.003,263.536
			c-9.426,0-17.067-7.641-17.067-17.067c0-9.426,7.641-17.067,17.067-17.067c9.426,0,17.067,7.641,17.067,17.067
			C272.042,255.883,264.417,263.508,255.003,263.536z M255.003,203.803c-9.387,0-17.067-17.152-17.067-38.4s7.68-38.4,17.067-38.4
			c9.387,0,17.067,17.152,17.067,38.4S264.389,203.803,255.003,203.803z"/>
		<g>
			<circle style="fill:#F4F4F4;" cx="255.003" cy="246.469" r="17.067"/>
			<ellipse style="fill:#F4F4F4;" cx="255.003" cy="165.403" rx="17.067" ry="38.4"/>
		</g>
	</g>
	<g>
		<path d="M452.269,91.759V59.736c-0.015-14.132-11.468-25.585-25.6-25.6H383.69c-79.042-45.511-176.333-45.511-255.375,0H85.336
			c-14.132,0.015-25.585,11.468-25.6,25.6v32.023c-67.098,80.01-78.76,192.796-29.452,284.842L1.336,422.094
			c-0.147,0.276-0.278,0.56-0.393,0.851c-0.124,0.237-0.237,0.48-0.336,0.728c-0.362,0.922-0.56,1.901-0.583,2.891l-0.021,0.105
			v8.533c0.019,18.844,15.29,34.115,34.133,34.133h80.421c85.717,56.889,197.175,56.889,282.892,0h80.421
			c18.844-0.019,34.115-15.29,34.133-34.133v-8.533l-0.021-0.105c-0.024-0.991-0.221-1.969-0.583-2.892
			c-0.097-0.256-0.217-0.485-0.336-0.729c-0.115-0.29-0.246-0.574-0.393-0.849l-28.948-45.493
			C531.029,284.555,519.367,171.769,452.269,91.759z M256.003,17.069c30.328,0.028,60.375,5.819,88.541,17.067H167.462
			C195.628,22.889,225.674,17.097,256.003,17.069z M76.803,59.736c0.003-4.712,3.822-8.53,8.533-8.533h341.333
			c4.712,0.003,8.53,3.822,8.533,8.533v264.533h-358.4V59.736z M17.069,256.003c0.037-48.63,14.923-96.089,42.667-136.029v210.341
			l-18.877,29.667C25.193,327.558,17.06,292.012,17.069,256.003z M256.003,494.936c-37.359,0.031-74.2-8.739-107.537-25.6h215.076
			C330.203,486.197,293.362,494.967,256.003,494.936z M477.869,452.269H34.136c-9.421-0.012-17.054-7.646-17.067-17.067h477.867
			C494.924,444.623,487.29,452.257,477.869,452.269z M256.003,418.136h-47.133l8.1-20.233c1.287-3.248,4.431-5.378,7.925-5.367
			h62.217c3.491-0.011,6.634,2.114,7.925,5.358l8.1,20.242H256.003z M321.515,418.136l-10.629-26.583
			c-3.867-9.737-13.298-16.117-23.775-16.083h-62.217c-10.48-0.034-19.912,6.35-23.775,16.092l-10.629,26.575H24.069l48.883-76.8
			h366.1l48.883,76.8H321.515z M452.269,330.315V119.973c49.156,70.73,56.371,162.464,18.877,240.009L452.269,330.315z"/>
		<path d="M256.003,119.469c-16.808,0-25.6,23.608-25.6,46.933s8.792,46.933,25.6,46.933c16.808,0,25.6-23.608,25.6-46.933
			S272.811,119.469,256.003,119.469z M256.178,196.294c-2.4-0.783-8.708-11.15-8.708-29.892s6.308-29.108,8.358-29.892
			c2.4,0.783,8.708,11.15,8.708,29.892S258.228,195.511,256.178,196.294z"/>
		<path d="M256.003,221.869c-14.139,0-25.6,11.462-25.6,25.6c0,14.139,11.462,25.6,25.6,25.6c14.138,0,25.6-11.461,25.6-25.6
			C281.587,233.337,270.135,221.885,256.003,221.869z M256.003,256.003c-4.713,0-8.533-3.821-8.533-8.533s3.821-8.533,8.533-8.533
			s8.533,3.821,8.533,8.533C264.533,252.181,260.714,255.999,256.003,256.003z"/>
		<path d="M392.378,294.061c4.683-8.363,4.492-18.601-0.5-26.783L277.728,80.561c-4.582-7.626-12.828-12.292-21.725-12.292
			s-17.143,4.665-21.725,12.292l-114.15,186.717c-4.992,8.182-5.183,18.421-0.5,26.783c4.437,8.125,12.967,13.169,22.225,13.142
			h228.3C379.411,307.23,387.94,302.186,392.378,294.061z M134.519,285.72c-1.7-2.971-1.633-6.635,0.175-9.542l114.15-186.717
			c1.48-2.553,4.207-4.125,7.158-4.125c2.951,0,5.679,1.572,7.158,4.125l114.15,186.717c1.808,2.906,1.875,6.571,0.175,9.542
			c-1.447,2.708-4.263,4.404-7.334,4.416h-228.3C138.782,290.124,135.966,288.428,134.519,285.72L134.519,285.72z"/>
	</g>
</g>
<g>
</g>
<g>
</g>
<g>
</g>
<g>
</g>
<g>
</g>
<g>
</g>
<g>
</g>
<g>
</g>
<g>
</g>
<g>
</g>
<g>
</g>
<g>
</g>
<g>
</g>
<g>
</g>
<g>
</g>
</svg>
