<?xml version="1.0" standalone="no"?>
<!DOCTYPE svg PUBLIC "-//W3C//DTD SVG 20010904//EN"
 "http://www.w3.org/TR/2001/REC-SVG-20010904/DTD/svg10.dtd">
<svg version="1.0" xmlns="http://www.w3.org/2000/svg"
 width="845.000000pt" height="749.000000pt" viewBox="0 0 845.000000 749.000000"
 preserveAspectRatio="xMidYMid meet">
<metadata>
Created by potrace 1.16, written by Peter Selinger 2001-2019
</metadata>
<g transform="translate(0.000000,749.000000) scale(0.100000,-0.100000)"
fill="#000000" stroke="none">
<path d="M4260 7263 c-268 -25 -369 -41 -585 -93 -858 -205 -1634 -748 -2132
-1490 -286 -427 -479 -918 -562 -1430 -32 -199 -36 -260 -36 -555 0 -198 5
-348 13 -415 78 -616 272 -1135 610 -1629 322 -472 777 -878 1284 -1145 203
-107 482 -220 676 -274 l72 -20 1 21 c1 12 2 27 3 32 1 6 5 39 9 75 15 125 18
139 35 143 15 4 15 5 -1 6 -20 1 -20 -12 8 206 8 61 17 133 19 160 6 75 16
153 27 220 6 33 12 87 15 120 5 76 6 85 13 85 3 0 5 25 4 55 0 30 3 55 7 55 5
0 6 12 4 27 -2 16 0 60 6 98 11 77 15 119 18 183 1 23 5 42 10 42 11 0 143
-179 147 -199 2 -9 4 -24 4 -33 1 -10 5 -18 10 -18 5 0 7 10 4 23 -4 15 5 9
27 -22 31 -40 36 -43 68 -37 19 3 43 13 54 23 10 9 31 17 46 18 19 0 28 6 32
25 4 17 53 62 155 142 83 64 151 123 153 132 2 8 -5 17 -15 20 -10 3 -157 24
-328 46 -170 22 -330 44 -355 49 -25 5 -81 15 -125 21 -119 18 -296 63 -425
109 -140 50 -330 143 -362 176 -13 14 -29 25 -36 25 -19 0 -122 68 -128 85 -4
8 -10 13 -14 10 -5 -3 -16 5 -25 17 -8 13 -18 21 -22 19 -3 -2 -28 16 -55 40
-42 37 -46 44 -31 51 15 5 14 7 -7 7 -32 1 -110 77 -110 109 0 13 -4 20 -10
17 -6 -4 -8 -12 -4 -18 3 -7 -8 4 -26 23 -34 39 -53 77 -44 91 3 5 0 9 -5 9
-6 0 -11 -6 -11 -12 0 -16 -79 93 -80 110 0 18 18 14 23 -5 4 -14 5 -12 6 5 1
17 -4 22 -24 22 -17 0 -29 9 -40 30 -19 37 -19 40 3 41 14 0 14 2 -3 8 -11 5
-23 7 -27 4 -5 -2 -8 10 -8 27 0 17 -4 29 -9 26 -5 -3 -14 9 -21 27 -6 17 -20
50 -30 72 -18 39 -60 162 -60 178 0 4 7 7 15 7 9 0 15 9 14 23 -1 16 -2 18 -6
5 -2 -10 -8 -18 -11 -18 -13 0 -34 60 -36 105 -2 25 -6 48 -9 52 -12 11 -7 61
6 66 6 3 3 6 -8 7 l-20 1 20 9 20 9 -20 0 c-17 1 -17 3 -5 11 9 6 10 10 3 10
-9 0 -11 35 -8 143 2 78 6 160 9 182 2 22 5 54 5 71 1 28 4 31 29 27 24 -3 25
-3 5 6 -22 10 -23 16 -9 99 8 44 25 58 27 20 0 -13 3 -17 6 -10 3 8 0 24 -6
35 -9 17 -8 31 3 62 8 22 15 34 15 28 1 -15 27 -17 36 -3 3 6 -1 7 -9 4 -11
-4 -16 0 -16 11 0 12 5 15 18 11 15 -5 15 -4 -1 8 -17 13 -18 19 -7 53 25 77
73 173 83 166 5 -3 7 -1 3 5 -8 14 32 82 49 82 8 0 17 4 20 10 4 6 -1 7 -12 4
-16 -5 -16 -4 -3 8 8 7 16 19 18 27 4 20 64 101 74 101 5 0 7 4 4 9 -3 4 10
30 29 57 27 37 35 59 35 91 0 38 3 43 23 44 21 0 21 1 2 9 l-20 9 20 1 c19 1
18 2 -2 10 -19 8 -23 17 -23 57 0 26 -2 80 -5 118 -3 48 -2 62 4 45 8 -22 9
-22 10 -4 1 11 -3 24 -8 30 -11 12 -23 178 -14 188 4 4 8 19 8 34 3 58 17 115
26 101 6 -9 9 -10 9 -2 0 6 8 14 18 16 16 4 16 5 0 6 -26 2 -22 19 5 24 l22 4
-22 2 c-26 1 -28 19 -8 71 10 27 14 30 14 13 1 -12 5 -24 9 -27 9 -5 9 35 -1
50 -9 15 14 85 29 91 7 3 11 10 8 18 -3 7 17 37 45 66 33 36 50 48 51 37 0 -9
4 -19 9 -22 5 -4 7 3 4 14 -4 16 0 20 20 20 14 0 28 -6 30 -12 4 -9 6 -9 6 -2
1 8 12 9 35 4 19 -4 38 -5 42 -1 3 3 3 -5 -1 -19 -7 -24 -7 -24 9 -5 13 17 17
18 26 5 8 -13 10 -13 10 0 0 10 3 11 11 3 6 -6 18 -9 27 -6 8 4 13 2 9 -3 -3
-5 11 -10 31 -11 21 -1 69 -12 107 -25 66 -22 70 -25 76 -58 l6 -35 2 32 c1
31 2 32 31 22 17 -6 30 -17 30 -24 0 -8 4 -17 10 -20 6 -4 7 1 3 11 -4 12 -2
15 8 12 8 -3 13 -10 12 -16 -2 -6 3 -9 11 -6 26 10 316 -176 316 -203 0 -9 3
-13 7 -10 3 4 16 1 28 -7 26 -17 66 -23 83 -12 7 4 19 3 27 -4 8 -6 22 -10 32
-7 14 4 13 5 -4 6 -25 1 -32 21 -9 21 8 0 21 3 29 6 10 3 17 -2 20 -13 4 -16
5 -16 6 0 0 9 5 17 10 17 5 0 16 3 25 6 10 4 16 1 16 -9 0 -9 4 -18 8 -21 5
-3 8 5 8 17 -1 15 5 22 19 22 11 1 26 4 33 8 7 5 12 3 12 -5 0 -10 2 -10 9 1
5 8 18 12 30 8 12 -3 19 -2 16 2 -6 11 278 44 305 36 12 -4 27 -1 36 5 21 18
721 7 909 -14 223 -25 215 -23 215 -59 0 -23 3 -28 9 -18 5 8 16 11 24 8 9 -3
18 1 21 9 9 24 26 16 27 -13 1 -17 3 -21 6 -10 5 20 53 24 53 5 0 -10 2 -10 8
-1 4 6 19 14 34 18 20 5 27 3 31 -12 3 -13 5 -11 6 7 0 14 9 30 19 35 10 6 32
17 48 25 16 8 32 20 36 26 5 7 18 10 30 7 19 -4 20 -3 8 6 -13 9 -13 11 1 11
9 0 20 7 23 16 3 8 10 12 16 9 5 -3 10 -1 10 4 0 6 7 11 15 11 8 0 15 4 15 9
0 9 96 65 130 76 12 4 20 0 23 -12 4 -15 5 -14 6 4 1 18 17 26 114 57 61 19
140 42 174 50 56 13 62 13 66 -3 4 -14 5 -14 6 0 1 11 14 19 42 23 49 8 62 0
35 -20 -11 -8 -15 -14 -8 -14 6 0 17 9 24 19 14 20 32 22 57 7 10 -6 12 -5 7
2 -5 8 0 12 13 12 12 0 21 -4 21 -10 0 -5 0 -12 0 -15 0 -3 9 -14 20 -25 11
-11 20 -32 20 -46 0 -16 4 -23 12 -18 8 5 9 0 6 -14 -4 -12 -2 -22 3 -22 5 0
13 -10 18 -22 7 -19 5 -24 -13 -28 -16 -4 -21 -14 -23 -40 -1 -19 1 -27 3 -18
3 9 13 19 22 21 15 4 15 5 0 6 -25 1 -23 21 2 21 21 0 40 -50 40 -106 0 -17 4
-44 9 -60 13 -37 22 -216 11 -209 -4 2 -6 -26 -4 -63 2 -40 0 -62 -5 -54 -6
11 -9 9 -13 -6 -4 -15 -2 -19 8 -15 11 4 13 -4 8 -43 -4 -27 -11 -54 -16 -60
-5 -7 -8 -16 -7 -20 4 -25 -3 -54 -16 -68 -22 -21 -18 -81 8 -129 12 -23 24
-44 27 -47 13 -12 80 -111 95 -140 15 -30 15 -33 -1 -44 -21 -16 -12 -46 13
-45 16 0 16 1 -2 9 -19 8 -19 9 2 9 26 1 53 -43 53 -85 0 -15 10 -38 21 -50
13 -14 23 -41 26 -68 3 -25 9 -44 13 -41 12 7 31 -78 20 -89 -6 -6 -3 -14 6
-20 8 -6 16 -25 17 -41 1 -17 5 -32 8 -35 16 -13 42 -234 47 -398 5 -171 4
-184 -14 -197 -17 -12 -17 -17 -6 -35 15 -25 8 -140 -11 -175 -6 -11 -10 -30
-8 -42 2 -23 -31 -158 -51 -203 -10 -24 -11 -24 -19 -5 -6 16 -8 13 -8 -15 -1
-28 2 -32 10 -20 9 12 10 11 4 -5 -23 -65 -28 -74 -38 -68 -6 4 -8 0 -4 -11 4
-10 -7 -43 -26 -82 -30 -63 -32 -64 -38 -37 -6 24 -7 21 -8 -15 -1 -33 -12
-60 -46 -113 -25 -39 -50 -76 -55 -82 -6 -7 -19 -23 -30 -37 l-19 -25 -1 33
c0 18 -4 31 -8 28 -5 -3 -7 -19 -4 -36 5 -38 -21 -80 -51 -80 -15 0 -18 -3 -9
-8 12 -8 -55 -79 -141 -149 -27 -23 -38 -18 -14 6 8 9 8 12 0 7 -6 -3 -13 1
-16 11 -3 10 -5 1 -6 -19 -1 -32 -7 -41 -45 -68 -25 -16 -48 -30 -52 -30 -4 0
-16 -8 -27 -17 -15 -14 -18 -15 -16 -3 2 8 -1 15 -6 16 -6 0 -9 -8 -7 -19 2
-12 -1 -18 -10 -15 -7 3 -12 13 -12 22 2 13 -1 14 -12 5 -12 -10 -12 -13 3
-24 15 -11 14 -14 -8 -28 -50 -33 -218 -107 -331 -146 -206 -71 -311 -90 -936
-171 -172 -23 -319 -43 -327 -46 -38 -15 -17 -38 163 -174 67 -52 121 -99 118
-106 -2 -6 2 -11 9 -10 8 0 14 -3 14 -9 0 -5 -7 -9 -16 -8 -11 1 -12 -2 -4
-10 7 -7 14 -7 25 2 12 10 22 6 57 -18 42 -31 82 -40 94 -21 3 6 21 10 38 11
27 1 28 2 10 7 -21 7 -16 16 79 142 55 74 105 136 109 138 5 2 9 -7 9 -20 0
-13 3 -41 7 -62 4 -28 3 -37 -5 -32 -7 4 -12 1 -12 -8 0 -8 6 -19 13 -23 16
-9 31 -73 18 -73 -5 0 -12 6 -14 13 -3 6 -5 -6 -5 -28 0 -22 3 -30 5 -18 2 13
9 23 14 23 5 0 9 -1 9 -3 0 -2 18 -122 40 -267 22 -145 40 -282 40 -305 0 -23
4 -45 10 -51 5 -5 11 -36 14 -69 2 -33 7 -67 10 -75 4 -8 5 -30 2 -47 -2 -18
0 -31 4 -28 5 3 41 -215 40 -247 0 -4 -10 -9 -22 -11 -18 -3 -17 -4 3 -3 25 2
27 -1 34 -58 5 -34 9 -77 10 -96 2 -34 4 -35 39 -33 20 1 102 26 184 54 1063
373 1887 1214 2236 2284 274 842 222 1774 -144 2586 -448 994 -1348 1745
-2401 2004 -172 42 -405 81 -564 95 -109 9 -491 11 -575 3z"/>
<path d="M3620 4255 l0 -95 190 0 190 0 0 95 0 95 -190 0 -190 0 0 -95z"/>
<path d="M5040 4245 l0 -95 190 0 190 0 0 95 0 95 -190 0 -190 0 0 -95z"/>
<path d="M2740 3363 c0 -41 -5 -74 -12 -82 -10 -11 -10 -13 0 -7 7 5 12 1 12
-9 0 -9 -4 -13 -10 -10 -5 3 -10 2 -10 -4 0 -11 49 -30 248 -96 78 -26 141
-49 139 -51 -2 -2 -50 -20 -107 -40 -82 -29 -104 -33 -111 -22 -7 10 -9 9 -9
-4 0 -10 -4 -18 -9 -18 -5 0 -16 -3 -24 -6 -10 -3 -17 2 -20 13 -4 15 -5 14
-6 -4 -1 -17 -10 -25 -41 -33 l-40 -11 0 -79 c0 -69 -2 -80 -17 -81 -12 0 -13
-2 -5 -6 10 -4 9 -8 -4 -17 -13 -10 -14 -15 -4 -21 9 -5 11 -4 6 3 -9 14 -9
14 32 3 23 -7 30 -7 26 1 -5 7 -1 9 9 5 10 -3 17 -3 17 2 0 17 39 19 43 2 4
-14 5 -14 6 2 0 9 5 17 10 17 5 0 12 -8 15 -17 3 -10 4 -7 2 7 -2 25 7 30 221
115 l224 89 -3 100 -3 100 -65 27 c-36 15 -81 34 -100 42 -19 8 -75 30 -125
50 -63 24 -94 42 -102 58 -10 18 -13 20 -13 7 0 -10 -2 -18 -4 -18 -12 0 -76
32 -76 38 0 4 -10 8 -22 8 -13 1 -33 5 -45 9 -22 7 -23 5 -23 -62z"/>
<path d="M3689 3414 c-184 -56 -295 -262 -245 -452 48 -177 200 -281 398 -270
229 12 387 200 357 423 -19 143 -118 256 -264 302 -53 17 -188 15 -246 -3z
m203 -174 c3 0 21 -12 39 -27 65 -55 87 -158 50 -238 -33 -72 -86 -105 -167
-105 -144 0 -226 172 -145 303 37 61 111 91 181 75 19 -4 38 -8 42 -8z"/>
<path d="M4458 3421 c-46 -15 -102 -52 -127 -83 -31 -38 -53 -122 -45 -168 19
-102 70 -140 257 -194 127 -36 151 -56 118 -97 -34 -42 -164 -26 -253 30 l-47
30 -56 -66 -56 -65 33 -25 c107 -81 299 -115 427 -77 145 43 214 208 136 326
-32 48 -97 81 -223 114 -119 32 -132 39 -132 68 0 60 98 68 207 16 36 -17 67
-29 68 -28 1 2 23 33 49 70 l47 67 -47 27 c-25 15 -65 34 -87 42 -48 17 -228
26 -269 13z"/>
<path d="M5209 3416 c-111 -43 -181 -105 -226 -201 -24 -52 -28 -72 -28 -155
0 -86 3 -101 31 -160 61 -129 166 -200 306 -208 45 -3 104 1 134 7 59 14 145
67 187 116 l27 33 -70 51 c-38 28 -74 51 -78 51 -5 0 -17 -9 -28 -21 -56 -62
-167 -77 -232 -31 -44 32 -72 96 -72 168 0 170 176 244 301 127 l26 -24 71 56
c40 31 72 60 72 65 0 16 -95 92 -140 113 -58 26 -226 34 -281 13z"/>
<path d="M6228 3405 c-39 -16 -58 -19 -62 -11 -2 6 -5 5 -5 -4 -1 -17 -214
-106 -230 -96 -5 3 -11 1 -13 -5 -2 -6 -44 -27 -93 -47 l-90 -37 -3 -101 -3
-100 272 -108 c150 -60 280 -111 291 -114 17 -4 18 3 18 96 l0 101 -40 12
c-22 7 -40 16 -40 21 0 5 -5 6 -10 3 -6 -3 -14 4 -19 17 -8 19 -10 20 -10 4
-1 -10 -6 -16 -13 -14 -7 3 -65 22 -128 43 -113 38 -115 39 -85 51 43 17 115
29 95 15 -11 -8 -12 -11 -2 -11 8 0 16 9 19 20 3 11 8 18 12 15 4 -2 20 2 35
10 15 8 62 26 104 39 89 28 89 29 84 152 -2 49 -8 74 -15 73 -7 0 -38 -11 -69
-24z"/>
<path d="M4459 1702 c-74 -48 -239 -185 -239 -198 0 -8 4 -14 9 -14 5 0 15
-17 22 -37 6 -21 16 -44 22 -50 5 -7 6 -13 1 -14 -5 0 0 -4 11 -9 11 -5 66 -9
123 -9 61 -1 102 -5 102 -11 0 -5 14 -10 30 -10 17 0 30 5 30 10 0 6 33 10 80
10 64 0 82 3 87 16 5 13 7 13 14 2 7 -10 9 -9 9 5 0 9 4 17 9 17 5 0 12 -8 14
-17 4 -14 5 -12 6 5 1 13 -5 22 -14 22 -12 0 -12 5 -1 32 8 18 22 35 32 39 18
7 18 8 -1 9 l-20 1 20 9 c11 5 14 9 7 9 -13 1 -35 18 -155 117 -104 85 -148
100 -198 66z"/>
<path d="M4319 1310 c-19 -5 -26 -18 -40 -75 -9 -39 -20 -92 -24 -120 -4 -27
-11 -55 -17 -62 -5 -7 -7 -16 -4 -21 4 -7 -72 -387 -103 -517 -6 -22 -16 -71
-23 -108 -9 -51 -14 -64 -20 -50 -6 12 -7 7 -3 -15 4 -27 -11 -117 -31 -184
-3 -10 -13 -18 -22 -19 -43 -1 41 -21 128 -29 242 -25 635 -21 788 6 31 6 32
8 25 43 -3 20 -7 45 -8 56 -1 11 -7 39 -14 63 -6 23 -9 47 -6 53 4 5 2 16 -5
24 -6 7 -14 40 -17 72 -3 32 -10 61 -15 64 -4 3 -10 25 -12 50 -2 24 -5 45 -6
47 -1 1 -3 5 -4 10 -1 4 -10 43 -20 87 -9 44 -20 88 -22 98 -4 11 2 20 18 26
21 9 21 10 3 11 -17 0 -18 2 -5 11 12 8 11 9 -6 4 -18 -5 -22 0 -27 32 -4 22
-2 40 4 44 8 4 7 8 -2 12 -10 4 -9 6 4 6 9 1 17 5 17 10 0 5 -8 8 -17 7 -18
-1 -27 21 -53 132 -11 49 -11 54 6 67 18 13 18 14 1 21 -15 5 -16 9 -5 15 9 6
7 9 -8 9 -17 0 -23 10 -33 55 -7 30 -18 58 -24 62 -13 8 -365 11 -398 3z"/>
</g>
</svg>
